G04 MADE WITH FRITZING*
G04 WWW.FRITZING.ORG*
G04 DOUBLE SIDED*
G04 HOLES PLATED*
G04 CONTOUR ON CENTER OF CONTOUR VECTOR*
%ASAXBY*%
%FSLAX23Y23*%
%MOIN*%
%OFA0B0*%
%SFA1.0B1.0*%
%ADD10C,0.057829*%
%ADD11C,0.072992*%
%ADD12C,0.085000*%
%ADD13C,0.088000*%
%ADD14R,0.072992X0.072992*%
%ADD15R,0.088000X0.088000*%
%LNMASK1*%
G90*
G70*
G54D10*
X1478Y2099D03*
X1677Y2996D03*
X1578Y2996D03*
X1478Y2996D03*
X1378Y2996D03*
X1278Y2996D03*
X1578Y2099D03*
X1677Y2099D03*
X1378Y2099D03*
X1178Y2996D03*
X1078Y2996D03*
X978Y2996D03*
X879Y2996D03*
X779Y2996D03*
X679Y2996D03*
X579Y2996D03*
X479Y2996D03*
X379Y2996D03*
X280Y2996D03*
X978Y2099D03*
X879Y2099D03*
X779Y2099D03*
X679Y2099D03*
X579Y2099D03*
X479Y2099D03*
X379Y2099D03*
X280Y2099D03*
X1278Y2099D03*
X1178Y2099D03*
X1078Y2099D03*
G54D11*
X2078Y1495D03*
X2078Y1397D03*
X1578Y1495D03*
X1578Y1397D03*
G54D12*
X1095Y1879D03*
X1378Y1596D03*
G54D13*
X3178Y1596D03*
X3178Y1697D03*
X3178Y1797D03*
G54D14*
X2078Y1495D03*
X1578Y1495D03*
G54D15*
X3179Y1796D03*
G04 End of Mask1*
M02*