; NON-PLATED HOLES START AT T1
; THROUGH (PLATED) HOLES START AT T100
M48
INCH
T100C0.031497
T101C0.022334
T102C0.035000
T103C0.038000
%
T100
X020783Y013965
X015783Y014949
X020783Y014949
X015783Y013965
T101
X007787Y020991
X002795Y029964
X011781Y020991
X016774Y020991
X014777Y029964
X011781Y029964
X015775Y020991
X010783Y020991
X005790Y020991
X007787Y029964
X005790Y029964
X014777Y020991
X010783Y029964
X013778Y020991
X008786Y029964
X004792Y029964
X009784Y029964
X016774Y029964
X003793Y020991
X012780Y029964
X002795Y020991
X009784Y020991
X015775Y029964
X003793Y029964
X008786Y020991
X006789Y029964
X006789Y020991
X013778Y029964
X012780Y020991
X004792Y020991
T102
X010954Y018793
X013783Y015964
T103
X031783Y016965
X031783Y017965
X031783Y015960
T00
M30
