G04 MADE WITH FRITZING*
G04 WWW.FRITZING.ORG*
G04 DOUBLE SIDED*
G04 HOLES PLATED*
G04 CONTOUR ON CENTER OF CONTOUR VECTOR*
%ASAXBY*%
%FSLAX23Y23*%
%MOIN*%
%OFA0B0*%
%SFA1.0B1.0*%
%ADD10C,0.047859*%
%ADD11C,0.062992*%
%ADD12C,0.075000*%
%ADD13C,0.078000*%
%ADD14R,0.062992X0.062992*%
%ADD15R,0.078000X0.078000*%
%ADD16C,0.024000*%
%LNCOPPER1*%
G90*
G70*
G54D10*
X1478Y2099D03*
X1677Y2996D03*
X1578Y2996D03*
X1478Y2996D03*
X1378Y2996D03*
X1278Y2996D03*
X1578Y2099D03*
X1677Y2099D03*
X1378Y2099D03*
X1178Y2996D03*
X1078Y2996D03*
X978Y2996D03*
X879Y2996D03*
X779Y2996D03*
X679Y2996D03*
X579Y2996D03*
X479Y2996D03*
X379Y2996D03*
X280Y2996D03*
X978Y2099D03*
X879Y2099D03*
X779Y2099D03*
X679Y2099D03*
X579Y2099D03*
X479Y2099D03*
X379Y2099D03*
X280Y2099D03*
X1278Y2099D03*
X1178Y2099D03*
X1078Y2099D03*
G54D11*
X2078Y1495D03*
X2078Y1397D03*
X1578Y1495D03*
X1578Y1397D03*
G54D12*
X1095Y1879D03*
X1378Y1596D03*
G54D13*
X3178Y1596D03*
X3178Y1697D03*
X3178Y1797D03*
G54D14*
X2078Y1495D03*
X1578Y1495D03*
G54D15*
X3179Y1796D03*
G54D16*
X989Y2079D02*
X1082Y1905D01*
D02*
X1404Y1584D02*
X1554Y1507D01*
D02*
X1494Y2115D02*
X1577Y2195D01*
D02*
X1577Y2195D02*
X2280Y2195D01*
D02*
X2679Y2096D02*
X3155Y1715D01*
D02*
X2280Y2195D02*
X2679Y2096D01*
D02*
X395Y2083D02*
X578Y1896D01*
D02*
X877Y1594D02*
X1552Y1404D01*
D02*
X578Y1896D02*
X877Y1594D01*
D02*
X3149Y1601D02*
X1980Y1796D01*
D02*
X1980Y1796D02*
X1379Y1895D01*
D02*
X1379Y1895D02*
X1194Y2083D01*
G04 End of Copper1*
M02*