G04 MADE WITH FRITZING*
G04 WWW.FRITZING.ORG*
G04 DOUBLE SIDED*
G04 HOLES PLATED*
G04 CONTOUR ON CENTER OF CONTOUR VECTOR*
%ASAXBY*%
%FSLAX23Y23*%
%MOIN*%
%OFA0B0*%
%SFA1.0B1.0*%
%ADD10C,0.073889*%
%ADD11C,0.047859*%
%ADD12C,0.062992*%
%ADD13R,0.062992X0.062992*%
%ADD14C,0.024000*%
%LNCOPPER0*%
G90*
G70*
G54D10*
X225Y1202D03*
X225Y1102D03*
X225Y1002D03*
G54D11*
X2426Y1502D03*
X2226Y605D03*
X2326Y605D03*
X2426Y605D03*
X2526Y605D03*
X2625Y605D03*
X2326Y1502D03*
X2226Y1502D03*
X2526Y1502D03*
X2725Y605D03*
X2825Y605D03*
X2925Y605D03*
X3025Y605D03*
X3125Y605D03*
X3225Y605D03*
X3324Y605D03*
X3424Y605D03*
X3524Y605D03*
X3624Y605D03*
X2925Y1502D03*
X3025Y1502D03*
X3125Y1502D03*
X3225Y1502D03*
X3324Y1502D03*
X3424Y1502D03*
X3524Y1502D03*
X3624Y1502D03*
X2625Y1502D03*
X2725Y1502D03*
X2825Y1502D03*
G54D12*
X751Y1977D03*
X751Y2075D03*
X351Y1977D03*
X351Y2075D03*
X1151Y1977D03*
X1151Y2075D03*
G54D13*
X751Y1977D03*
X351Y1977D03*
X1151Y1977D03*
G54D14*
X1526Y1502D02*
X773Y1963D01*
D02*
X2204Y1502D02*
X1526Y1502D01*
D02*
X724Y2075D02*
X377Y2075D01*
D02*
X1124Y2075D02*
X777Y2075D01*
D02*
X2809Y1518D02*
X2724Y1602D01*
D02*
X2724Y1602D02*
X1176Y2067D01*
D02*
X225Y2002D02*
X327Y2061D01*
D02*
X225Y1236D02*
X225Y2002D01*
D02*
X2424Y1101D02*
X2712Y1484D01*
D02*
X2125Y1003D02*
X2424Y1101D01*
D02*
X259Y1002D02*
X2125Y1003D01*
D02*
X2023Y1101D02*
X259Y1102D01*
D02*
X2226Y1203D02*
X2023Y1101D01*
D02*
X2413Y1484D02*
X2226Y1203D01*
G04 End of Copper0*
M02*