; NON-PLATED HOLES START AT T1
; THROUGH (PLATED) HOLES START AT T100
M48
INCH
T100C0.031497
T101C0.022334
T102C0.046111
%
T100
X003505Y020749
X007505Y019765
X003505Y019765
X011505Y020749
X011505Y019765
X007505Y020749
T101
X034242Y015021
X035240Y006048
X033243Y006048
X032245Y006048
X022260Y015021
X036238Y015021
X027252Y006048
X023258Y015021
X034242Y006048
X025255Y015021
X030248Y015021
X036238Y006048
X024257Y006048
X035240Y015021
X031246Y006048
X028251Y006048
X022260Y006048
X033243Y015021
X029249Y006048
X025255Y006048
X026254Y015021
X027252Y015021
X031246Y015021
X023258Y006048
X024257Y015021
X026254Y006048
X032245Y015021
X029249Y015021
X030248Y006048
X028251Y015021
T102
X002249Y010021
X002249Y011021
X002249Y012021
T00
M30
